<?xml version="1.0" encoding="UTF-8"?>
<svg width="1440px" height="513px" viewBox="0 0 1440 513" version="1.1" xmlns="http://www.w3.org/2000/svg" xmlns:xlink="http://www.w3.org/1999/xlink">
    <title>Black BG with Diamond</title>
    <defs>
        <rect id="path-1" x="0" y="0" width="1440" height="513"></rect>
    </defs>
    <g id="Page-1" stroke="none" stroke-width="1" fill="none" fill-rule="evenodd">
        <g id="1" transform="translate(-0.000000, -557.000000)">
            <g id="Black-BG-with-Diamond" transform="translate(0.000000, 557.000000)">
                <mask id="mask-2" fill="white">
                    <use xlink:href="#path-1"></use>
                </mask>
                <g id="Mask"></g>
                <g id="Group-3" mask="url(#mask-2)">
                    <g transform="translate(-45.500000, -75.000000)">
                        <g id="diamonds-overlay" opacity="0.8" transform="translate(1336.177939, 473.354517) rotate(-270.000000) translate(-1336.177939, -473.354517) translate(862.823423, 324.058103)">
                            <g id="Group" opacity="0.304" transform="translate(0.000000, -0.025647)" fill-rule="nonzero">
                                <path d="M473.79369,119.353 L513.336934,59.793 L552.880177,119.353 L473.79369,119.353 Z M513.412853,59.793 L473.870609,119.353 L513.412853,59.793 Z M552.817244,119.353 L513.273001,59.793 L552.817244,119.353 Z" id="Shape" fill="#B5BECB"></path>
                                <polygon id="Path" fill="#B5BECB" opacity="0.315" points="355.602496 297.315 395.145739 237.755 434.688983 297.315"></polygon>
                                <path d="M395.202679,237.753 L355.660435,297.313 L395.202679,237.753 Z M434.605072,297.313 L395.062827,237.753 L434.605072,297.313 Z" id="Shape" fill="#B5BECB"></path>
                                <polygon id="Path" fill="#B5BECB" opacity="0.674" points="394.999893 238.013 434.543137 178.469 474.085382 238.013 474.085382 238.03"></polygon>
                                <path d="M474.086381,237.978 L394.999893,237.961 L474.086381,237.978 Z M434.605072,178.469 L395.062827,238.012 L434.605072,178.469 Z M434.466218,178.453 L434.466218,178.47 L474.009462,238.014 L434.466218,178.453 Z" id="Shape" fill="#B5BECB"></path>
                                <polygon id="Path" fill="#B5BECB" opacity="0.618" points="316.205098 119.345 355.748342 59.802 395.291585 119.346 395.291585 119.363"></polygon>
                                <path d="M395.291585,119.211 L316.205098,119.194 L395.291585,119.211 Z M355.800287,59.803 L316.256044,119.346 L355.800287,59.803 Z M355.659436,59.785 L355.659436,59.802 L395.202679,119.346 L355.659436,59.785 Z" id="Shape" fill="#B5BECB"></path>
                                <polygon id="Path" fill="#B5BECB" opacity="0.618" points="394.999893 119.358 434.543137 59.814 474.085382 119.358 474.085382 119.375"></polygon>
                                <path d="M474.086381,119.222 L394.999893,119.205 L474.086381,119.222 Z M434.605072,59.813 L395.062827,119.357 L434.605072,59.813 Z M434.466218,59.801 L434.466218,59.818 L474.009462,119.362 L434.466218,59.801 Z M592.277575,178.478 L552.734331,238.022 L513.191088,178.478 L513.191088,178.462 L592.277575,178.478 Z M513.190089,178.611 L592.276576,178.628 L513.190089,178.611 Z M552.677391,238.023 L592.219636,178.479 L552.677391,238.023 Z" id="Shape" fill="#B5BECB"></path>
                                <polygon id="Path" fill="#B5BECB" points="552.816245 238.037 552.816245 238.02 513.273001 178.476"></polygon>
                                <path d="M513.191088,178.704 L552.734331,119.16 L592.277575,178.704 L592.277575,178.721 L513.191088,178.704 Z M592.276576,178.62 L513.190089,178.603 L592.276576,178.62 Z M552.817244,119.162 L513.273001,178.706 L552.817244,119.162 Z" id="Shape" fill="#B5BECB"></path>
                                <path d="M552.677391,119.144 L552.677391,119.161 L592.220635,178.705 L552.677391,119.144 Z M670.779679,297.409 L710.322923,237.865 L749.866167,297.409 L749.866167,297.425 L670.779679,297.409 Z M749.866167,297.427 L670.779679,297.41 L749.866167,297.427 Z M710.42981,237.866 L670.887565,297.41 L710.42981,237.866 Z" id="Shape" fill="#B5BECB"></path>
                                <polygon id="Path" fill="#B5BECB" opacity="0.315" points="236.999736 238.252 276.54298 297.812 316.086224 238.252"></polygon>
                                <path d="M276.581939,297.812 L237.037696,238.252 L276.581939,297.812 Z M315.984331,238.252 L276.442086,297.812 L315.984331,238.252 Z M788.679181,238.067 L828.222425,178.523 L867.765669,238.067 L867.765669,238.083 L788.679181,238.067 Z M867.765669,238.032 L788.679181,238.015 L867.765669,238.032 Z M828.221426,178.522 L788.679181,238.066 L828.221426,178.522 Z" id="Shape" fill="#B5BECB"></path>
                                <path d="M710.289958,0.571 L710.289958,0.589 L749.833201,60.132 L710.289958,0.571 Z M907.307914,59.859 L867.76467,119.419 L828.221426,59.859 L907.307914,59.859 Z M867.765669,119.419 L907.307914,59.859 L867.765669,119.419 Z M828.221426,59.859 L867.765669,119.419 L828.221426,59.859 Z M513.48278,59.809 L473.939536,119.353 L434.396292,59.809 L434.396292,59.792 L513.48278,59.809 Z M434.396292,60.045 L513.48278,60.062 L434.396292,60.045 Z M473.86961,119.354 L513.412853,59.806 L473.86961,119.354 Z" id="Shape" fill="#A9B2BF"></path>
                                <path d="M474.009462,119.37 L474.009462,119.353 L434.466218,59.806 L474.009462,119.37 Z M513.190089,297.335 L592.276576,297.352 L513.190089,297.335 Z M552.588485,238.038 L592.131729,178.494 L631.674973,238.038 L631.674973,238.054 L552.588485,238.038 Z M631.672975,238.003 L552.588485,237.987 L631.672975,238.003 Z M592.219636,178.494 L552.677391,238.038 L592.219636,178.494 Z" id="Shape" fill="#A9B2BF"></path>
                                <path d="M631.673974,119.16 L592.13073,178.704 L552.588485,119.16 L552.588485,119.14 L631.673974,119.16 Z M552.588485,119.241 L631.672975,119.258 L552.588485,119.241 Z M592.079784,178.7 L631.618033,119.156 L592.079784,178.7 Z" id="Shape" fill="#A9B2BF"></path>
                                <path d="M592.219636,178.716 L592.219636,178.7 L552.677391,119.155 L592.219636,178.716 Z M631.382282,119.395 L670.925525,59.851 L710.468769,119.395 L710.468769,119.411 L631.382282,119.395 Z M710.46777,119.262 L631.381283,119.245 L710.46777,119.262 Z M671.027418,59.852 L631.483175,119.396 L671.027418,59.852 Z" id="Shape" fill="#A9B2BF"></path>
                                <polygon id="Path" fill="#A9B2BF" opacity="0.467" points="355.602496 178.662 395.145739 119.102 434.688983 178.662"></polygon>
                                <path d="M395.202679,119.102 L355.660435,178.662 L395.202679,119.102 Z M434.605072,178.662 L395.062827,119.102 L434.605072,178.662 Z" id="Shape" fill="#A9B2BF"></path>
                                <polygon id="Path" fill="#A9B2BF" opacity="0.618" points="434.396292 178.692 473.939536 119.148 513.48278 178.692 513.48278 178.709"></polygon>
                                <path d="M513.48278,178.607 L434.396292,178.59 L513.48278,178.607 Z M474.009462,119.147 L434.465219,178.691 L474.009462,119.147 Z M473.86961,119.131 L473.86961,119.147 L513.412853,178.692 L473.86961,119.131 Z M434.396292,60.037 L473.939536,0.493 L513.48278,60.037 L513.48278,60.058 L434.396292,60.037 Z M513.48278,60.054 L434.396292,60.037 L513.48278,60.054 Z M474.009462,0.493 L434.465219,60.037 L474.009462,0.493 Z" id="Shape" fill="#A9B2BF"></path>
                                <polygon id="Path" fill="#A9B2BF" points="473.86961 0.476 473.86961 0.492 513.412853 60.036"></polygon>
                                <path d="M592.277575,59.822 L552.734331,119.366 L513.191088,59.822 L513.191088,59.804 L592.277575,59.822 Z M513.190089,60.056 L592.276576,60.073 L513.190089,60.056 Z M552.677391,119.366 L592.219636,59.822 L552.677391,119.366 Z" id="Shape" fill="#A9B2BF"></path>
                                <path d="M552.816245,119.383 L552.816245,119.366 L513.273001,59.822 L552.816245,119.383 Z M552.879178,237.762 L513.336934,297.323 L473.79369,237.763 L552.879178,237.762 Z M513.273001,297.322 L552.817244,237.762 L513.273001,297.322 Z M473.870609,237.762 L513.412853,297.322 L473.870609,237.762 Z M434.396292,297.322 L513.48278,297.339 L434.396292,297.322 Z" id="Shape" fill="#A9B2BF"></path>
                                <path d="M631.673974,237.807 L592.13073,297.351 L552.587486,237.807 L552.587486,237.791 L631.673974,237.807 Z M552.588485,237.995 L631.672975,238.012 L552.588485,237.995 Z M592.079784,297.352 L631.618033,237.808 L592.079784,297.352 Z" id="Shape" fill="#A9B2BF"></path>
                                <path d="M592.219636,297.367 L592.219636,297.351 L552.676392,237.807 L592.219636,297.367 Z M591.984884,178.701 L631.523133,119.14 L671.066377,178.7 L591.984884,178.701 Z M631.618033,119.139 L592.079784,178.699 L631.618033,119.139 Z M671.027418,178.699 L631.483175,119.139 L671.027418,178.699 Z" id="Shape" fill="#A9B2BF"></path>
                                <path d="M552.879178,0.433 L513.336934,59.991 L473.79369,0.433 L552.879178,0.433 Z M513.273001,59.99 L552.817244,0.433 L513.273001,59.99 Z M473.86961,0.433 L513.412853,59.99 L473.86961,0.433 Z" id="Shape" fill="#919AA7"></path>
                                <path d="M513.191088,59.995 L552.734331,0.451 L592.277575,59.995 L592.277575,60.012 L513.191088,59.995 Z M592.276576,60.012 L513.190089,59.995 L592.276576,60.012 Z M552.817244,0.452 L513.273001,59.996 L552.817244,0.452 Z" id="Shape" fill="#919AA7"></path>
                                <path d="M552.677391,0.435 L552.677391,0.451 L592.219636,59.995 L552.677391,0.435 Z M828.221426,297.326 L867.76467,237.766 L907.307914,297.326 L828.221426,297.326 Z M867.765669,237.767 L828.221426,297.327 L867.765669,237.767 Z M907.306915,297.327 L867.765669,237.767 L907.306915,297.327 Z M473.79369,237.955 L513.336934,178.395 L552.880177,237.955 L473.79369,237.955 Z M513.412853,178.395 L473.870609,237.955 L513.412853,178.395 Z M552.817244,237.955 L513.273001,178.395 L552.817244,237.955 Z" id="Shape" fill="#919AA7"></path>
                                <path d="M513.191088,297.273 L552.734331,237.729 L592.277575,297.273 L592.277575,297.29 L513.191088,297.273 Z M592.276576,297.288 L513.190089,297.272 L592.276576,297.288 Z M552.817244,237.729 L513.273001,297.273 L552.817244,237.729 Z" id="Shape" fill="#919AA7"></path>
                                <path d="M552.677391,237.713 L552.677391,237.73 L592.220635,297.274 L552.677391,237.713 Z M552.588485,119.329 L592.131729,59.785 L631.674973,119.329 L631.674973,119.345 L552.588485,119.329 Z M631.672975,119.195 L552.588485,119.178 L631.672975,119.195 Z M592.219636,59.785 L552.677391,119.329 L592.219636,59.785 Z" id="Shape" fill="#919AA7"></path>
                                <polygon id="Path" fill="#B5BECB" opacity="0.618" points="276.034517 178.628 315.577761 119.085 355.121004 178.629 355.121004 178.646"></polygon>
                                <polygon id="Path" fill="#B5BECB" opacity="0.618" points="237.329388 119.358 276.872632 59.814 316.414877 119.358 316.414877 119.375"></polygon>
                                <polygon id="Path" fill="#B5BECB" opacity="0.232" points="0.996947257 119.69 40.5401909 179.25 80.0834346 119.69"></polygon>
                                <polygon id="Path" fill="#A9B2BF" opacity="0.159" points="40.8698428 298.17 80.4130865 238.626 119.95633 298.17 119.95633 298.191"></polygon>
                                <polygon id="Path" fill="#B5BECB" opacity="0.618" points="198.894974 179.386 159.35173 238.93 119.809485 179.386 119.809485 179.369"></polygon>
                                <polygon id="Path" fill="#A9B2BF" opacity="0.196" points="316.435854 238.95 355.979098 179.39 395.522342 238.95"></polygon>
                                <polygon id="Path" fill="#A9B2BF" points="395.982855 0.528 356.439612 60.072 316.896368 0.528 316.896368 0.511"></polygon>
                                <polygon id="Path" fill="#A9B2BF" opacity="0.37" points="198.392504 60.037 237.935748 0.493 277.478992 60.037 277.478992 60.058"></polygon>
                                <polygon id="Path" fill="#B5BECB" opacity="0.238" points="196.154867 178.639 235.698111 119.095 275.240355 178.639 275.240355 178.656"></polygon>
                                <polygon id="Path" fill="#B5BECB" opacity="0.403" points="79.9505749 119.358 119.493819 59.814 159.036063 119.358 159.036063 119.375"></polygon>
                            </g>
                        </g>
                        <g id="diamonds-overlay-copy" opacity="0.8" transform="translate(1045.074898, 548.252383) scale(-1, 1) rotate(-270.000000) translate(-1045.074898, -548.252383) translate(571.720381, 398.955969)">
                            <g id="Group" opacity="0.304" transform="translate(0.102133, -0.278484)" fill-rule="nonzero">
                                <path d="M473.79369,119.353 L513.336934,59.793 L552.880177,119.353 L473.79369,119.353 Z M513.412853,59.793 L473.870609,119.353 L513.412853,59.793 Z M552.817244,119.353 L513.273001,59.793 L552.817244,119.353 Z" id="Shape" fill="#B5BECB"></path>
                                <polygon id="Path" fill="#B5BECB" opacity="0.315" points="355.602496 297.315 395.145739 237.755 434.688983 297.315"></polygon>
                                <path d="M395.202679,237.753 L355.660435,297.313 L395.202679,237.753 Z M434.605072,297.313 L395.062827,237.753 L434.605072,297.313 Z" id="Shape" fill="#B5BECB"></path>
                                <polygon id="Path" fill="#B5BECB" opacity="0.674" points="394.999893 238.013 434.543137 178.469 474.085382 238.013 474.085382 238.03"></polygon>
                                <path d="M474.086381,237.978 L394.999893,237.961 L474.086381,237.978 Z M434.605072,178.469 L395.062827,238.012 L434.605072,178.469 Z M434.466218,178.453 L434.466218,178.47 L474.009462,238.014 L434.466218,178.453 Z" id="Shape" fill="#B5BECB"></path>
                                <polygon id="Path" fill="#B5BECB" opacity="0.618" points="316.205098 119.345 355.748342 59.802 395.291585 119.346 395.291585 119.363"></polygon>
                                <path d="M395.291585,119.211 L316.205098,119.194 L395.291585,119.211 Z M355.800287,59.803 L316.256044,119.346 L355.800287,59.803 Z M355.659436,59.785 L355.659436,59.802 L395.202679,119.346 L355.659436,59.785 Z" id="Shape" fill="#B5BECB"></path>
                                <polygon id="Path" fill="#B5BECB" opacity="0.618" points="394.999893 119.358 434.543137 59.814 474.085382 119.358 474.085382 119.375"></polygon>
                                <path d="M474.086381,119.222 L394.999893,119.205 L474.086381,119.222 Z M434.605072,59.813 L395.062827,119.357 L434.605072,59.813 Z M434.466218,59.801 L434.466218,59.818 L474.009462,119.362 L434.466218,59.801 Z M592.277575,178.478 L552.734331,238.022 L513.191088,178.478 L513.191088,178.462 L592.277575,178.478 Z M513.190089,178.611 L592.276576,178.628 L513.190089,178.611 Z M552.677391,238.023 L592.219636,178.479 L552.677391,238.023 Z" id="Shape" fill="#B5BECB"></path>
                                <polygon id="Path" fill="#B5BECB" opacity="0.315" points="236.999736 238.252 276.54298 297.812 316.086224 238.252"></polygon>
                                <path d="M276.581939,297.812 L237.037696,238.252 L276.581939,297.812 Z M315.984331,238.252 L276.442086,297.812 L315.984331,238.252 Z M788.679181,238.067 L828.222425,178.523 L867.765669,238.067 L867.765669,238.083 L788.679181,238.067 Z M867.765669,238.032 L788.679181,238.015 L867.765669,238.032 Z M828.221426,178.522 L788.679181,238.066 L828.221426,178.522 Z" id="Shape" fill="#B5BECB"></path>
                                <path d="M710.289958,0.571 L710.289958,0.589 L749.833201,60.132 L710.289958,0.571 Z M907.307914,59.859 L867.76467,119.419 L828.221426,59.859 L907.307914,59.859 Z M867.765669,119.419 L907.307914,59.859 L867.765669,119.419 Z M828.221426,59.859 L867.765669,119.419 L828.221426,59.859 Z M513.48278,59.809 L473.939536,119.353 L434.396292,59.809 L434.396292,59.792 L513.48278,59.809 Z M434.396292,60.045 L513.48278,60.062 L434.396292,60.045 Z M473.86961,119.354 L513.412853,59.806 L473.86961,119.354 Z" id="Shape" fill="#A9B2BF"></path>
                                <path d="M474.009462,119.37 L474.009462,119.353 L434.466218,59.806 L474.009462,119.37 Z M513.190089,297.335 L592.276576,297.352 L513.190089,297.335 Z M552.588485,238.038 L592.131729,178.494 L631.674973,238.038 L631.674973,238.054 L552.588485,238.038 Z M631.672975,238.003 L552.588485,237.987 L631.672975,238.003 Z M592.219636,178.494 L552.677391,238.038 L592.219636,178.494 Z" id="Shape" fill="#A9B2BF"></path>
                                <polygon id="Path" fill="#A9B2BF" opacity="0.467" points="355.602496 178.662 395.145739 119.102 434.688983 178.662"></polygon>
                                <path d="M395.202679,119.102 L355.660435,178.662 L395.202679,119.102 Z M434.605072,178.662 L395.062827,119.102 L434.605072,178.662 Z" id="Shape" fill="#A9B2BF"></path>
                                <polygon id="Path" fill="#A9B2BF" opacity="0.618" points="434.396292 178.692 473.939536 119.148 513.48278 178.692 513.48278 178.709"></polygon>
                                <path d="M513.48278,178.607 L434.396292,178.59 L513.48278,178.607 Z M474.009462,119.147 L434.465219,178.691 L474.009462,119.147 Z M473.86961,119.131 L473.86961,119.147 L513.412853,178.692 L473.86961,119.131 Z M434.396292,60.037 L473.939536,0.493 L513.48278,60.037 L513.48278,60.058 L434.396292,60.037 Z M513.48278,60.054 L434.396292,60.037 L513.48278,60.054 Z M474.009462,0.493 L434.465219,60.037 L474.009462,0.493 Z" id="Shape" fill="#A9B2BF"></path>
                                <polygon id="Path" fill="#A9B2BF" points="473.86961 0.476 473.86961 0.492 513.412853 60.036"></polygon>
                                <path d="M552.816245,119.383 L552.816245,119.366 L513.273001,59.822 L552.816245,119.383 Z M552.879178,237.762 L513.336934,297.323 L473.79369,237.763 L552.879178,237.762 Z M513.273001,297.322 L552.817244,237.762 L513.273001,297.322 Z M473.870609,237.762 L513.412853,297.322 L473.870609,237.762 Z M434.396292,297.322 L513.48278,297.339 L434.396292,297.322 Z" id="Shape" fill="#A9B2BF"></path>
                                <path d="M552.879178,0.433 L513.336934,59.991 L473.79369,0.433 L552.879178,0.433 Z M513.273001,59.99 L552.817244,0.433 L513.273001,59.99 Z M473.86961,0.433 L513.412853,59.99 L473.86961,0.433 Z" id="Shape" fill="#919AA7"></path>
                                <path d="M552.677391,0.435 L552.677391,0.451 L592.219636,59.995 L552.677391,0.435 Z M828.221426,297.326 L867.76467,237.766 L907.307914,297.326 L828.221426,297.326 Z M867.765669,237.767 L828.221426,297.327 L867.765669,237.767 Z M907.306915,297.327 L867.765669,237.767 L907.306915,297.327 Z M473.79369,237.955 L513.336934,178.395 L552.880177,237.955 L473.79369,237.955 Z M513.412853,178.395 L473.870609,237.955 L513.412853,178.395 Z M552.817244,237.955 L513.273001,178.395 L552.817244,237.955 Z" id="Shape" fill="#919AA7"></path>
                                <polygon id="Path" fill="#B5BECB" opacity="0.618" points="276.034517 178.628 315.577761 119.085 355.121004 178.629 355.121004 178.646"></polygon>
                                <polygon id="Path" fill="#B5BECB" opacity="0.618" points="237.329388 119.358 276.872632 59.814 316.414877 119.358 316.414877 119.375"></polygon>
                                <polygon id="Path" fill="#B5BECB" opacity="0.232" points="0.996947257 119.69 40.5401909 179.25 80.0834346 119.69"></polygon>
                                <polygon id="Path" fill="#A9B2BF" opacity="0.159" points="40.8698428 298.17 80.4130865 238.626 119.95633 298.17 119.95633 298.191"></polygon>
                                <polygon id="Path" fill="#B5BECB" opacity="0.618" points="198.894974 179.386 159.35173 238.93 119.809485 179.386 119.809485 179.369"></polygon>
                                <polygon id="Path" fill="#A9B2BF" opacity="0.196" points="316.435854 238.95 355.979098 179.39 395.522342 238.95"></polygon>
                                <polygon id="Path" fill="#A9B2BF" points="395.982855 0.528 356.439612 60.072 316.896368 0.528 316.896368 0.511"></polygon>
                                <polygon id="Path" fill="#A9B2BF" opacity="0.37" points="198.392504 60.037 237.935748 0.493 277.478992 60.037 277.478992 60.058"></polygon>
                                <polygon id="Path" fill="#B5BECB" opacity="0.238" points="196.154867 178.639 235.698111 119.095 275.240355 178.639 275.240355 178.656"></polygon>
                                <polygon id="Path" fill="#B5BECB" opacity="0.403" points="79.9505749 119.358 119.493819 59.814 159.036063 119.358 159.036063 119.375"></polygon>
                            </g>
                        </g>
                        <g id="diamonds-overlay-copy-2" opacity="0.8" transform="translate(746.482070, 626.645483) rotate(-270.000000) translate(-746.482070, -626.645483) translate(273.127553, 477.349069)">
                            <g id="Group" opacity="0.304" transform="translate(-0.290967, 0.278484)" fill-rule="nonzero">
                                <polygon id="Path" fill="#B5BECB" opacity="0.315" points="355.602496 297.315 395.145739 237.755 434.688983 297.315"></polygon>
                                <path d="M395.202679,237.753 L355.660435,297.313 L395.202679,237.753 Z M434.605072,297.313 L395.062827,237.753 L434.605072,297.313 Z" id="Shape" fill="#B5BECB"></path>
                                <polygon id="Path" fill="#B5BECB" opacity="0.674" points="394.999893 238.013 434.543137 178.469 474.085382 238.013 474.085382 238.03"></polygon>
                                <path d="M474.086381,237.978 L394.999893,237.961 L474.086381,237.978 Z M434.605072,178.469 L395.062827,238.012 L434.605072,178.469 Z M434.466218,178.453 L434.466218,178.47 L474.009462,238.014 L434.466218,178.453 Z" id="Shape" fill="#B5BECB"></path>
                                <polygon id="Path" fill="#B5BECB" opacity="0.618" points="316.205098 119.345 355.748342 59.802 395.291585 119.346 395.291585 119.363"></polygon>
                                <path d="M395.291585,119.211 L316.205098,119.194 L395.291585,119.211 Z M355.800287,59.803 L316.256044,119.346 L355.800287,59.803 Z M355.659436,59.785 L355.659436,59.802 L395.202679,119.346 L355.659436,59.785 Z" id="Shape" fill="#B5BECB"></path>
                                <polygon id="Path" fill="#B5BECB" opacity="0.618" points="394.999893 119.358 434.543137 59.814 474.085382 119.358 474.085382 119.375"></polygon>
                                <path d="M474.086381,119.222 L394.999893,119.205 L474.086381,119.222 Z M434.605072,59.813 L395.062827,119.357 L434.605072,59.813 Z M434.466218,59.801 L434.466218,59.818 L474.009462,119.362 L434.466218,59.801 Z M592.277575,178.478 L552.734331,238.022 L513.191088,178.478 L513.191088,178.462 L592.277575,178.478 Z M513.190089,178.611 L592.276576,178.628 L513.190089,178.611 Z M552.677391,238.023 L592.219636,178.479 L552.677391,238.023 Z" id="Shape" fill="#B5BECB"></path>
                                <polygon id="Path" fill="#B5BECB" opacity="0.315" points="236.999736 238.252 276.54298 297.812 316.086224 238.252"></polygon>
                                <path d="M276.581939,297.812 L237.037696,238.252 L276.581939,297.812 Z M315.984331,238.252 L276.442086,297.812 L315.984331,238.252 Z M788.679181,238.067 L828.222425,178.523 L867.765669,238.067 L867.765669,238.083 L788.679181,238.067 Z M867.765669,238.032 L788.679181,238.015 L867.765669,238.032 Z M828.221426,178.522 L788.679181,238.066 L828.221426,178.522 Z" id="Shape" fill="#B5BECB"></path>
                                <path d="M710.289958,0.571 L710.289958,0.589 L749.833201,60.132 L710.289958,0.571 Z M907.307914,59.859 L867.76467,119.419 L828.221426,59.859 L907.307914,59.859 Z M867.765669,119.419 L907.307914,59.859 L867.765669,119.419 Z M828.221426,59.859 L867.765669,119.419 L828.221426,59.859 Z M513.48278,59.809 L473.939536,119.353 L434.396292,59.809 L434.396292,59.792 L513.48278,59.809 Z M434.396292,60.045 L513.48278,60.062 L434.396292,60.045 Z M473.86961,119.354 L513.412853,59.806 L473.86961,119.354 Z" id="Shape" fill="#A9B2BF"></path>
                                <path d="M474.009462,119.37 L474.009462,119.353 L434.466218,59.806 L474.009462,119.37 Z M513.190089,297.335 L592.276576,297.352 L513.190089,297.335 Z M552.588485,238.038 L592.131729,178.494 L631.674973,238.038 L631.674973,238.054 L552.588485,238.038 Z M631.672975,238.003 L552.588485,237.987 L631.672975,238.003 Z M592.219636,178.494 L552.677391,238.038 L592.219636,178.494 Z" id="Shape" fill="#A9B2BF"></path>
                                <polygon id="Path" fill="#A9B2BF" opacity="0.467" points="355.602496 178.662 395.145739 119.102 434.688983 178.662"></polygon>
                                <path d="M395.202679,119.102 L355.660435,178.662 L395.202679,119.102 Z M434.605072,178.662 L395.062827,119.102 L434.605072,178.662 Z" id="Shape" fill="#A9B2BF"></path>
                                <polygon id="Path" fill="#A9B2BF" opacity="0.618" points="434.396292 178.692 473.939536 119.148 513.48278 178.692 513.48278 178.709"></polygon>
                                <path d="M513.48278,178.607 L434.396292,178.59 L513.48278,178.607 Z M474.009462,119.147 L434.465219,178.691 L474.009462,119.147 Z M473.86961,119.131 L473.86961,119.147 L513.412853,178.692 L473.86961,119.131 Z M434.396292,60.037 L473.939536,0.493 L513.48278,60.037 L513.48278,60.058 L434.396292,60.037 Z M513.48278,60.054 L434.396292,60.037 L513.48278,60.054 Z M474.009462,0.493 L434.465219,60.037 L474.009462,0.493 Z" id="Shape" fill="#A9B2BF"></path>
                                <path d="M552.816245,119.383 L552.816245,119.366 L513.273001,59.822 L552.816245,119.383 Z M552.879178,237.762 L513.336934,297.323 L473.79369,237.763 L552.879178,237.762 Z M513.273001,297.322 L552.817244,237.762 L513.273001,297.322 Z M473.870609,237.762 L513.412853,297.322 L473.870609,237.762 Z M434.396292,297.322 L513.48278,297.339 L434.396292,297.322 Z" id="Shape" fill="#A9B2BF"></path>
                                <polygon id="Path" fill="#B5BECB" opacity="0.618" points="276.034517 178.628 315.577761 119.085 355.121004 178.629 355.121004 178.646"></polygon>
                                <polygon id="Path" fill="#B5BECB" opacity="0.618" points="237.329388 119.358 276.872632 59.814 316.414877 119.358 316.414877 119.375"></polygon>
                                <polygon id="Path" fill="#B5BECB" opacity="0.232" points="0.996947257 119.69 40.5401909 179.25 80.0834346 119.69"></polygon>
                                <polygon id="Path" fill="#A9B2BF" opacity="0.159" points="40.8698428 298.17 80.4130865 238.626 119.95633 298.17 119.95633 298.191"></polygon>
                                <polygon id="Path" fill="#B5BECB" opacity="0.618" points="198.894974 179.386 159.35173 238.93 119.809485 179.386 119.809485 179.369"></polygon>
                                <polygon id="Path" fill="#A9B2BF" opacity="0.196" points="316.435854 238.95 355.979098 179.39 395.522342 238.95"></polygon>
                                <polygon id="Path" fill="#A9B2BF" points="395.982855 0.528 356.439612 60.072 316.896368 0.528 316.896368 0.511"></polygon>
                                <polygon id="Path" fill="#A9B2BF" opacity="0.37" points="198.392504 60.037 237.935748 0.493 277.478992 60.037 277.478992 60.058"></polygon>
                                <polygon id="Path" fill="#B5BECB" opacity="0.238" points="196.154867 178.639 235.698111 119.095 275.240355 178.639 275.240355 178.656"></polygon>
                                <polygon id="Path" fill="#B5BECB" opacity="0.403" points="79.9505749 119.358 119.493819 59.814 159.036063 119.358 159.036063 119.375"></polygon>
                            </g>
                        </g>
                        <g id="diamonds-overlay-copy-3" opacity="0.8" transform="translate(448.887880, 548.252383) scale(-1, 1) rotate(-270.000000) translate(-448.887880, -548.252383) translate(-23.967317, 398.955969)">
                            <g id="Group" opacity="0.304" transform="translate(0.102814, -0.591466)" fill-rule="nonzero">
                                <path d="M472.794218,119.353 L512.337417,59.793 L551.880617,119.353 L472.794218,119.353 Z M512.413337,59.793 L472.871136,119.353 L512.413337,59.793 Z M551.817683,119.353 L512.273485,59.793 L551.817683,119.353 Z" id="Shape" fill="#B5BECB"></path>
                                <polygon id="Path" fill="#B5BECB" opacity="0.315" points="354.603155 297.315 394.146355 237.755 433.689554 297.315"></polygon>
                                <path d="M394.203295,237.753 L354.661094,297.313 L394.203295,237.753 Z M433.605643,297.313 L394.063442,237.753 L433.605643,297.313 Z" id="Shape" fill="#B5BECB"></path>
                                <polygon id="Path" fill="#B5BECB" opacity="0.674" points="394.000509 238.013 433.543709 178.469 473.085909 238.013 473.085909 238.03"></polygon>
                                <path d="M473.086908,237.978 L394.000509,237.961 L473.086908,237.978 Z M433.605643,178.469 L394.063442,238.012 L433.605643,178.469 Z M433.46679,178.453 L433.46679,178.47 L473.009989,238.014 L433.46679,178.453 Z" id="Shape" fill="#B5BECB"></path>
                                <polygon id="Path" fill="#B5BECB" opacity="0.618" points="315.205801 119.345 354.749001 59.802 394.292201 119.346 394.292201 119.363"></polygon>
                                <path d="M394.292201,119.211 L315.205801,119.194 L394.292201,119.211 Z M354.800946,59.803 L315.256748,119.346 L354.800946,59.803 Z M354.660095,59.785 L354.660095,59.802 L394.203295,119.346 L354.660095,59.785 Z" id="Shape" fill="#B5BECB"></path>
                                <polygon id="Path" fill="#B5BECB" opacity="0.618" points="394.000509 119.358 433.543709 59.814 473.085909 119.358 473.085909 119.375"></polygon>
                                <path d="M473.086908,119.222 L394.000509,119.205 L473.086908,119.222 Z M433.605643,59.813 L394.063442,119.357 L433.605643,59.813 Z M433.46679,59.801 L433.46679,59.818 L473.009989,119.362 L433.46679,59.801 Z M591.27797,178.478 L551.734771,238.022 L512.191571,178.478 L512.191571,178.462 L591.27797,178.478 Z M512.190572,178.611 L591.276971,178.628 L512.190572,178.611 Z M551.677831,238.023 L591.220032,178.479 L551.677831,238.023 Z" id="Shape" fill="#B5BECB"></path>
                                <polygon id="Path" fill="#B5BECB" points="551.816684 238.037 551.816684 238.02 512.273485 178.476"></polygon>
                                <path d="M512.191571,178.704 L551.734771,119.16 L591.27797,178.704 L591.27797,178.721 L512.191571,178.704 Z M591.276971,178.62 L512.190572,178.603 L591.276971,178.62 Z M551.817683,119.162 L512.273485,178.706 L551.817683,119.162 Z" id="Shape" fill="#B5BECB"></path>
                                <polygon id="Path" fill="#B5BECB" opacity="0.315" points="236.000528 238.252 275.543728 297.812 315.086927 238.252"></polygon>
                                <path d="M275.582686,297.812 L236.038488,238.252 L275.582686,297.812 Z M314.985035,238.252 L275.442834,297.812 L314.985035,238.252 Z M787.679358,238.067 L827.222558,178.523 L866.765757,238.067 L866.765757,238.083 L787.679358,238.067 Z M866.765757,238.032 L787.679358,238.015 L866.765757,238.032 Z M827.221559,178.522 L787.679358,238.066 L827.221559,178.522 Z" id="Shape" fill="#B5BECB"></path>
                                <path d="M709.290222,0.571 L709.290222,0.589 L748.833421,60.132 L709.290222,0.571 Z M906.307958,59.859 L866.764758,119.419 L827.221559,59.859 L906.307958,59.859 Z M866.765757,119.419 L906.307958,59.859 L866.765757,119.419 Z M827.221559,59.859 L866.765757,119.419 L827.221559,59.859 Z M512.483263,59.809 L472.940063,119.353 L433.396864,59.809 L433.396864,59.792 L512.483263,59.809 Z M433.396864,60.045 L512.483263,60.062 L433.396864,60.045 Z M472.870137,119.354 L512.413337,59.806 L472.870137,119.354 Z" id="Shape" fill="#A9B2BF"></path>
                                <path d="M473.009989,119.37 L473.009989,119.353 L433.46679,59.806 L473.009989,119.37 Z M512.190572,297.335 L591.276971,297.352 L512.190572,297.335 Z M551.588925,238.038 L591.132125,178.494 L630.675324,238.038 L630.675324,238.054 L551.588925,238.038 Z M630.673326,238.003 L551.588925,237.987 L630.673326,238.003 Z M591.220032,178.494 L551.677831,238.038 L591.220032,178.494 Z" id="Shape" fill="#A9B2BF"></path>
                                <polygon id="Path" fill="#A9B2BF" opacity="0.467" points="354.603155 178.662 394.146355 119.102 433.689554 178.662"></polygon>
                                <path d="M394.203295,119.102 L354.661094,178.662 L394.203295,119.102 Z M433.605643,178.662 L394.063442,119.102 L433.605643,178.662 Z" id="Shape" fill="#A9B2BF"></path>
                                <polygon id="Path" fill="#A9B2BF" opacity="0.618" points="433.396864 178.692 472.940063 119.148 512.483263 178.692 512.483263 178.709"></polygon>
                                <path d="M512.483263,178.607 L433.396864,178.59 L512.483263,178.607 Z M473.009989,119.147 L433.465791,178.691 L473.009989,119.147 Z M472.870137,119.131 L472.870137,119.147 L512.413337,178.692 L472.870137,119.131 Z M433.396864,60.037 L472.940063,0.493 L512.483263,60.037 L512.483263,60.058 L433.396864,60.037 Z M512.483263,60.054 L433.396864,60.037 L512.483263,60.054 Z M473.009989,0.493 L433.465791,60.037 L473.009989,0.493 Z" id="Shape" fill="#A9B2BF"></path>
                                <polygon id="Path" fill="#A9B2BF" points="472.870137 0.476 472.870137 0.492 512.413337 60.036"></polygon>
                                <path d="M591.27797,59.822 L551.734771,119.366 L512.191571,59.822 L512.191571,59.804 L591.27797,59.822 Z M512.190572,60.056 L591.276971,60.073 L512.190572,60.056 Z M551.677831,119.366 L591.220032,59.822 L551.677831,119.366 Z" id="Shape" fill="#A9B2BF"></path>
                                <path d="M551.816684,119.383 L551.816684,119.366 L512.273485,59.822 L551.816684,119.383 Z M551.879618,237.762 L512.337417,297.323 L472.794218,237.763 L551.879618,237.762 Z M512.273485,297.322 L551.817683,237.762 L512.273485,297.322 Z M472.871136,237.762 L512.413337,297.322 L472.871136,237.762 Z M433.396864,297.322 L512.483263,297.339 L433.396864,297.322 Z" id="Shape" fill="#A9B2BF"></path>
                                <path d="M551.879618,0.433 L512.337417,59.991 L472.794218,0.433 L551.879618,0.433 Z M512.273485,59.99 L551.817683,0.433 L512.273485,59.99 Z M472.870137,0.433 L512.413337,59.99 L472.870137,0.433 Z" id="Shape" fill="#919AA7"></path>
                                <path d="M512.191571,59.995 L551.734771,0.451 L591.27797,59.995 L591.27797,60.012 L512.191571,59.995 Z M591.276971,60.012 L512.190572,59.995 L591.276971,60.012 Z M551.817683,0.452 L512.273485,59.996 L551.817683,0.452 Z" id="Shape" fill="#919AA7"></path>
                                <path d="M551.677831,0.435 L551.677831,0.451 L591.220032,59.995 L551.677831,0.435 Z M827.221559,297.326 L866.764758,237.766 L906.307958,297.326 L827.221559,297.326 Z M866.765757,237.767 L827.221559,297.327 L866.765757,237.767 Z M906.306959,297.327 L866.765757,237.767 L906.306959,297.327 Z M472.794218,237.955 L512.337417,178.395 L551.880617,237.955 L472.794218,237.955 Z M512.413337,178.395 L472.871136,237.955 L512.413337,178.395 Z M551.817683,237.955 L512.273485,178.395 L551.817683,237.955 Z" id="Shape" fill="#919AA7"></path>
                                <path d="M512.191571,297.273 L551.734771,237.729 L591.27797,297.273 L591.27797,297.29 L512.191571,297.273 Z M591.276971,297.288 L512.190572,297.272 L591.276971,297.288 Z M551.817683,237.729 L512.273485,297.273 L551.817683,237.729 Z" id="Shape" fill="#919AA7"></path>
                                <polygon id="Path" fill="#B5BECB" opacity="0.618" points="275.035265 178.628 314.578465 119.085 354.121664 178.629 354.121664 178.646"></polygon>
                                <polygon id="Path" fill="#B5BECB" opacity="0.618" points="236.33018 119.358 275.873379 59.814 315.41558 119.358 315.41558 119.375"></polygon>
                                <polygon id="Path" fill="#B5BECB" opacity="0.232" points="-0.00199788807 119.69 39.5412017 179.25 79.0844013 119.69"></polygon>
                                <polygon id="Path" fill="#A9B2BF" opacity="0.159" points="39.8708532 298.17 79.4140528 238.626 118.957252 298.17 118.957252 298.191"></polygon>
                                <polygon id="Path" fill="#B5BECB" opacity="0.618" points="197.895808 179.386 158.352608 238.93 118.810408 179.386 118.810408 179.369"></polygon>
                                <polygon id="Path" fill="#A9B2BF" opacity="0.196" points="315.436558 238.95 354.979757 179.39 394.522957 238.95"></polygon>
                                <polygon id="Path" fill="#A9B2BF" points="394.98347 0.528 355.44027 60.072 315.897071 0.528 315.897071 0.511"></polygon>
                                <polygon id="Path" fill="#A9B2BF" opacity="0.37" points="197.393339 60.037 236.936539 0.493 276.479738 60.037 276.479738 60.058"></polygon>
                                <polygon id="Path" fill="#B5BECB" opacity="0.238" points="195.155704 178.639 234.698904 119.095 274.241105 178.639 274.241105 178.656"></polygon>
                                <polygon id="Path" fill="#B5BECB" opacity="0.403" points="78.9515417 119.358 118.494741 59.814 158.036942 119.358 158.036942 119.375"></polygon>
                            </g>
                        </g>
                        <g id="Group" opacity="0.304" transform="translate(149.296414, 626.645483) rotate(-270.000000) translate(-149.296414, -626.645483) translate(-324.058103, 477.349069)">
                            <polygon id="Path" fill="#B5BECB" fill-rule="nonzero" opacity="0.315" points="355.709033 297.092828 395.209033 238.092828 434.709033 297.092828"></polygon>
                            <path d="M395.279008,238.092828 L355.709033,297.092828 L395.279008,238.092828 Z M434.709033,297.092828 L395.139058,238.092828 L434.709033,297.092828 Z" id="Shape" fill="#B5BECB" fill-rule="nonzero"></path>
                            <polygon id="Path" fill="#B5BECB" fill-rule="nonzero" opacity="0.674" points="394.709033 237.075988 434.209532 178.092828 473.709033 237.075988 473.709033 237.092828"></polygon>
                            <path d="M473.709033,237.057167 L394.709033,237.040327 L473.709033,237.057167 Z M434.2709,178.108677 L394.771898,237.090847 L434.2709,178.108677 Z M434.132198,178.092828 L434.132198,178.109668 L473.632198,237.092828 L434.132198,178.092828 Z" id="Shape" fill="#B5BECB" fill-rule="nonzero"></path>
                            <polygon id="Path" fill="#B5BECB" fill-rule="nonzero" opacity="0.618" points="315.709033 119.074998 355.209033 60.092828 394.709033 119.075988 394.709033 119.092828"></polygon>
                            <path d="M394.709033,118.9591 L315.709033,118.94226 L394.709033,118.9591 Z M355.260921,60.1106584 L315.759924,119.092828 L355.260921,60.1106584 Z M355.120224,60.092828 L355.120224,60.1096678 L394.620224,119.092828 L355.120224,60.092828 Z" id="Shape" fill="#B5BECB" fill-rule="nonzero"></path>
                            <polygon id="Path" fill="#B5BECB" fill-rule="nonzero" opacity="0.618" points="394.709033 119.075988 434.209532 60.092828 473.709033 119.075988 473.709033 119.092828"></polygon>
                            <path d="M474.184201,118.939811 L395.209033,118.922832 L474.184201,118.939811 Z M434.758464,59.604813 L395.271878,119.074643 L434.758464,59.604813 Z M434.619807,59.592828 L434.619807,59.6098068 L474.10739,119.079637 L434.619807,59.592828 Z M592.209033,178.121999 L552.721449,237.591829 L513.233865,178.121999 L513.233865,178.106019 L592.209033,178.121999 Z M513.232868,178.254834 L592.208036,178.271813 L513.232868,178.254834 Z M552.664589,237.592828 L592.151176,178.122998 L552.664589,237.592828 Z" id="Shape" fill="#B5BECB" fill-rule="nonzero"></path>
                            <polygon id="Path" fill="#B5BECB" fill-rule="nonzero" opacity="0.315" points="236.709033 238.092828 276.209033 297.092828 315.709033 238.092828"></polygon>
                            <path d="M276.270331,297.092828 L236.709033,237.677621 L276.270331,297.092828 Z M315.689717,237.677621 L276.130418,297.092828 L315.689717,237.677621 Z M788.588436,237.493071 L828.148735,178.093826 L867.709033,237.493071 L867.709033,237.509032 L788.588436,237.493071 Z M867.709033,237.458156 L788.588436,237.441197 L867.709033,237.458156 Z M828.147735,178.092828 L788.588436,237.492073 L828.147735,178.092828 Z" id="Shape" fill="#B5BECB" fill-rule="nonzero"></path>
                            <path d="M709.654258,0.0928279619 L709.654258,0.110850983 L749.204892,59.7300032 L709.654258,0.0928279619 Z M906.709033,59.456654 L867.1584,119.092828 L827.607766,59.456654 L906.709033,59.456654 Z M867.159399,119.092828 L906.709033,59.456654 L867.159399,119.092828 Z M827.607766,59.456654 L867.159399,119.092828 L827.607766,59.456654 Z M512.8103,59.4065901 L473.259667,119.026744 L433.709033,59.4065901 L433.709033,59.3895683 L512.8103,59.4065901 Z M433.709033,59.6428919 L512.8103,59.6599137 L433.709033,59.6428919 Z M473.189728,119.027745 L512.740361,59.4035862 L473.189728,119.027745 Z" id="Shape" fill="#A9B2BF" fill-rule="nonzero"></path>
                            <polygon id="Path" fill="#A9B2BF" fill-rule="nonzero" opacity="0.467" points="355.709033 178.092828 395.209033 119.092828 434.709033 178.092828"></polygon>
                            <path d="M395.279008,119.092828 L355.709033,178.092828 L395.279008,119.092828 Z M434.709033,178.092828 L395.139058,119.092828 L434.709033,178.092828 Z" id="Shape" fill="#A9B2BF" fill-rule="nonzero"></path>
                            <path d="M513.209033,178.507923 L434.209033,178.490942 L513.209033,178.507923 Z M473.778883,119.114324 L434.277885,178.591829 L473.778883,119.114324 Z M473.639183,119.098341 L473.639183,119.114324 L513.139183,178.592828 L473.639183,119.098341 Z M434.209033,60.0703334 L473.709033,0.592827962 L513.209033,60.0703334 L513.209033,60.09131 L434.209033,60.0703334 Z M513.209033,60.0873145 L434.209033,60.0703334 L513.209033,60.0873145 Z M473.778883,0.592827962 L434.277885,60.0703334 L473.778883,0.592827962 Z" id="Shape" fill="#A9B2BF" fill-rule="nonzero"></path>
                            <path d="M552.146356,119.024182 L552.146356,119.007219 L512.764274,59.592828 L552.146356,119.024182 Z M552.209033,237.145508 L512.827946,296.576863 L473.445864,237.146506 L552.209033,237.145508 Z M512.764274,296.575865 L552.147351,237.145508 L512.764274,296.575865 Z M473.522469,237.145508 L512.903556,296.575865 L473.522469,237.145508 Z M434.209033,296.575865 L512.973197,296.592828 L434.209033,296.575865 Z" id="Shape" fill="#A9B2BF" fill-rule="nonzero"></path>
                            <polygon id="Path" fill="#B5BECB" fill-rule="nonzero" opacity="0.618" points="275.709033 178.074998 315.209033 119.092828 354.709033 178.075988 354.709033 178.092828"></polygon>
                            <polygon id="Path" fill="#B5BECB" fill-rule="nonzero" opacity="0.618" points="237.709033 119.075988 277.209532 60.092828 316.709033 119.075988 316.709033 119.092828"></polygon>
                            <polygon id="Path" fill="#B5BECB" fill-rule="nonzero" opacity="0.232" points="0.709033137 120.092828 40.2090331 179.092828 79.7090331 120.092828"></polygon>
                            <polygon id="Path" fill="#A9B2BF" fill-rule="nonzero" opacity="0.159" points="40.7090331 297.072027 80.2090331 238.092828 119.709033 297.072027 119.709033 297.092828"></polygon>
                            <polygon id="Path" fill="#B5BECB" fill-rule="nonzero" opacity="0.618" points="198.709033 179.109668 159.208534 238.092828 119.709033 179.109668 119.709033 179.092828"></polygon>
                            <polygon id="Path" fill="#A9B2BF" fill-rule="nonzero" opacity="0.196" points="316.709033 238.092828 356.209033 179.092828 395.709033 238.092828"></polygon>
                            <polygon id="Path" fill="#A9B2BF" fill-rule="nonzero" points="395.709033 1.10966784 356.209033 60.092828 316.709033 1.10966784 316.709033 1.09282796"></polygon>
                            <polygon id="Path" fill="#A9B2BF" fill-rule="nonzero" opacity="0.37" points="198.709033 60.0720272 238.209033 1.09282796 277.709033 60.0720272 277.709033 60.092828"></polygon>
                            <polygon id="Path" fill="#B5BECB" fill-rule="nonzero" opacity="0.238" points="195.709033 178.075988 235.209532 119.092828 274.709033 178.075988 274.709033 178.092828"></polygon>
                            <polygon id="Path" fill="#B5BECB" fill-rule="nonzero" opacity="0.403" points="79.7090331 119.075988 119.209532 60.092828 158.709033 119.075988 158.709033 119.092828"></polygon>
                        </g>
                    </g>
                </g>
            </g>
        </g>
    </g>
</svg>